<svg width="66" height="55" viewBox="0 0 66 55" fill="none" xmlns="http://www.w3.org/2000/svg">
<path d="M46.5656 5.23149L46.2125 5.58543V5.58543L46.5656 5.23149ZM49.8809 8.53954L49.5277 8.89348L49.5277 8.89348L49.8809 8.53954ZM49.881 9.24734L50.2342 9.60119L49.881 9.24734ZM27.2271 31.8625L26.8739 31.5087L27.2271 31.8625ZM23.2069 31.8625L22.826 31.5386C22.6573 31.737 22.6691 32.0316 22.8531 32.2159L23.2069 31.8625ZM13.1454 21.8183L13.4987 21.4644L13.4987 21.4644L13.1454 21.8183ZM23.2063 31.8619L22.853 32.2158C22.9518 32.3144 23.0872 32.3672 23.2266 32.3615C23.366 32.3558 23.4967 32.2922 23.5871 32.1859L23.2063 31.8619ZM13.1454 21.1106L13.4987 21.4644L13.4987 21.4644L13.1454 21.1106ZM16.4592 17.8025L16.1059 17.4486L16.4592 17.8025ZM17.1657 17.8025L17.5189 17.4486L17.1657 17.8025ZM25.2162 25.8393L24.863 26.1932C25.0582 26.388 25.3743 26.388 25.5695 26.1932L25.2162 25.8393ZM25.5695 26.8997L25.2162 26.5458H25.2162L25.5695 26.8997ZM46.2125 6.29185L46.5657 5.93791C46.3705 5.74313 46.0545 5.74316 45.8593 5.93799L46.2125 6.29185ZM24.863 26.8997L25.2162 26.5458H25.2162L24.863 26.8997ZM16.8124 18.8629L17.1657 18.509C16.9705 18.3141 16.6544 18.3141 16.4592 18.509L16.8124 18.8629ZM14.2064 21.4644L13.8532 21.1106C13.7592 21.2043 13.7064 21.3317 13.7064 21.4644C13.7064 21.5972 13.7592 21.7245 13.8532 21.8183L14.2064 21.4644ZM23.9134 31.1548L23.5601 31.5087L23.5604 31.5089L23.9134 31.1548ZM23.914 31.1554L24.2679 30.8022L24.267 30.8013L23.914 31.1554ZM26.5206 31.1548L26.1674 30.801L26.5206 31.1548ZM48.8199 8.89357L49.1732 9.24742C49.2672 9.15361 49.32 9.02628 49.3199 8.89351C49.3199 8.76073 49.2671 8.63341 49.1731 8.53963L48.8199 8.89357ZM43.3942 8.45607L43.7616 8.11692L43.7616 8.11691L43.3942 8.45607ZM43.4253 8.49317L43.8238 8.19113L43.8237 8.19105L43.4253 8.49317ZM46.2688 12.2442L46.6672 11.9422L46.6672 11.9421L46.2688 12.2442ZM46.2962 12.2844L46.7222 12.0225L46.7221 12.0224L46.2962 12.2844ZM45.4571 12.8288L45.8833 12.5673C45.8747 12.5533 45.8654 12.5398 45.8555 12.5267L45.4571 12.8288ZM42.6431 9.11668L43.0416 8.81463C43.0317 8.80163 43.0212 8.78912 43.0102 8.77715L42.6431 9.11668ZM40.0631 11.7532L40.4333 11.4172L40.4333 11.4172L40.0631 11.7532ZM40.1011 11.8006L39.6928 12.0892L39.6928 12.0892L40.1011 11.8006ZM42.8446 15.6811L42.4363 15.9697L42.4363 15.9697L42.8446 15.6811ZM42.8767 15.733L43.3172 15.4964V15.4964L42.8767 15.733ZM42.0102 16.2332L42.451 15.9972C42.4413 15.979 42.4304 15.9614 42.4185 15.9445L42.0102 16.2332ZM39.3023 12.4029L39.7105 12.1143C39.6987 12.0975 39.6858 12.0815 39.672 12.0663L39.3023 12.4029ZM26.9974 8.79834C26.9974 8.24606 26.5497 7.79834 25.9974 7.79834V8.79834H26.9974ZM26.9974 10.358V8.79834H25.9974V10.358H26.9974ZM25.9974 11.358C26.5497 11.358 26.9974 10.9103 26.9974 10.358H25.9974V10.358V11.358ZM24.9974 10.358C24.9974 10.9103 25.4451 11.358 25.9974 11.358V10.358V10.358H24.9974ZM24.9974 8.79834V10.358H25.9974V8.79834H24.9974ZM25.9974 7.79834C25.4451 7.79834 24.9974 8.24606 24.9974 8.79834H25.9974V7.79834ZM26.9974 39.9917C26.9974 39.4394 26.5497 38.9917 25.9974 38.9917V39.9917H26.9974ZM26.9974 41.5514V39.9917H25.9974V41.5514H26.9974ZM25.9974 42.5514C26.5497 42.5514 26.9974 42.1037 26.9974 41.5514H25.9974V42.5514ZM24.9974 41.5514C24.9974 42.1037 25.4451 42.5514 25.9974 42.5514V41.5514H24.9974ZM24.9974 39.9917V41.5514H25.9974V39.9917H24.9974ZM25.9974 38.9917C25.4451 38.9917 24.9974 39.4394 24.9974 39.9917H25.9974V38.9917ZM40.0584 24.9547C39.5061 24.9547 39.0584 25.4024 39.0584 25.9547H40.0584V24.9547ZM41.6208 24.9547H40.0584V25.9547H41.6208V24.9547ZM42.6208 25.9547C42.6208 25.4024 42.173 24.9547 41.6208 24.9547V25.9547H42.6208ZM41.6208 26.9547C42.173 26.9547 42.6208 26.507 42.6208 25.9547H41.6208V26.9547ZM40.0584 26.9547H41.6208V25.9547H40.0584V26.9547ZM39.0584 25.9547C39.0584 26.507 39.5061 26.9547 40.0584 26.9547V25.9547H39.0584ZM8.81168 24.9547C8.2594 24.9547 7.81168 25.4024 7.81168 25.9547H8.81168V24.9547ZM10.374 24.9547H8.81168V25.9547H10.374V24.9547ZM11.374 25.9547C11.374 25.4024 10.9263 24.9547 10.374 24.9547V25.9547H11.374ZM10.374 26.9547C10.9263 26.9547 11.374 26.507 11.374 25.9547H10.374V26.9547ZM8.81168 26.9547H10.374V25.9547H8.81168V26.9547ZM7.81168 25.9547C7.81168 26.507 8.2594 26.9547 8.81168 26.9547V25.9547H7.81168ZM46.9188 4.87755C46.5284 4.48799 45.8963 4.48806 45.506 4.87772L46.2125 5.58543L46.9188 4.87755ZM50.2341 8.18561L46.9188 4.87755L46.2125 5.58543L49.5277 8.89348L50.2341 8.18561ZM50.5277 8.89337C50.5277 8.62781 50.4221 8.37318 50.2341 8.1856L49.5277 8.89348L49.5277 8.89348L50.5277 8.89337ZM50.2342 9.60119C50.4222 9.41358 50.5278 9.15891 50.5277 8.89337L49.5277 8.89348L49.5277 8.89348L50.2342 9.60119ZM27.5804 32.2164L50.2342 9.60119L49.5277 8.89348L26.8739 31.5087L27.5804 32.2164ZM25.2162 33.1934C26.0691 33.1934 26.9268 32.8689 27.5804 32.2164L26.8739 31.5087C26.4161 31.9656 25.8162 32.1934 25.2162 32.1934V33.1934ZM22.8531 32.2159C23.5058 32.8693 24.364 33.1934 25.2162 33.1934V32.1934C24.6164 32.1934 24.0167 31.9658 23.5606 31.5092L22.8531 32.2159ZM23.5877 32.1865L46.2401 5.55553L45.4783 4.90761L22.826 31.5386L23.5877 32.1865ZM12.7922 22.1721L22.853 32.2158L23.5595 31.5081L13.4987 21.4644L12.7922 22.1721ZM12.4987 21.4644C12.4987 21.7299 12.6043 21.9845 12.7922 22.1721L13.4987 21.4644L13.4987 21.4644H12.4987ZM12.7922 20.7567C12.6043 20.9443 12.4987 21.1989 12.4987 21.4644H13.4987L13.4987 21.4644L12.7922 20.7567ZM16.1059 17.4486L12.7922 20.7567L13.4987 21.4644L16.8124 18.1564L16.1059 17.4486ZM17.5189 17.4486C17.1285 17.0589 16.4963 17.0589 16.1059 17.4486L16.8124 18.1564L17.5189 17.4486ZM25.5695 25.4855L17.5189 17.4486L16.8124 18.1564L24.863 26.1932L25.5695 25.4855ZM45.506 4.87772L24.863 25.4855L25.5695 26.1932L46.2125 5.58543L45.506 4.87772ZM45.4784 4.9076L22.8254 31.538L23.5871 32.1859L46.2401 5.55554L45.4784 4.9076ZM25.9227 27.2535L46.5658 6.6457L45.8593 5.93799L25.2162 26.5458L25.9227 27.2535ZM24.5097 27.2535C24.9001 27.6432 25.5323 27.6432 25.9227 27.2535L25.2162 26.5458H25.2162L24.5097 27.2535ZM16.4592 19.2167L24.5097 27.2535L25.2162 26.5458L17.1657 18.509L16.4592 19.2167ZM14.5597 21.8183L17.1657 19.2167L16.4592 18.509L13.8532 21.1106L14.5597 21.8183ZM24.2666 30.801L14.5597 21.1106L13.8532 21.8183L23.5601 31.5087L24.2666 30.801ZM24.267 30.8013L24.2664 30.8007L23.5604 31.5089L23.561 31.5095L24.267 30.8013ZM25.2162 31.1934C24.8691 31.1934 24.5277 31.0624 24.2679 30.8022L23.5601 31.5087C24.0163 31.9656 24.6162 32.1934 25.2162 32.1934V31.1934ZM26.1674 30.801C25.9053 31.0626 25.5631 31.1934 25.2162 31.1934V32.1934C25.8163 32.1934 26.4162 31.9656 26.8739 31.5087L26.1674 30.801ZM48.4667 8.53971L26.1674 30.801L26.8739 31.5087L49.1732 9.24742L48.4667 8.53971ZM45.8594 6.64579L48.4668 9.2475L49.1731 8.53963L46.5657 5.93791L45.8594 6.64579ZM25.2162 0C11.2919 0 0 11.2702 0 25.1749H1C1 11.8241 11.8426 1 25.2162 1V0ZM43.7616 8.11691C39.1555 3.12735 32.5511 0 25.2162 0V1C32.2608 1 38.6023 4.00236 43.0269 8.79522L43.7616 8.11691ZM43.8237 8.19105C43.8043 8.16542 43.7836 8.14067 43.7616 8.11692L43.0268 8.79522L43.0269 8.79529L43.8237 8.19105ZM46.6672 11.9421L43.8238 8.19113L43.0269 8.79522L45.8703 12.5462L46.6672 11.9421ZM46.7221 12.0224C46.7052 11.9948 46.6869 11.968 46.6672 11.9422L45.8703 12.5462L45.8703 12.5463L46.7221 12.0224ZM50.4324 25.1749C50.4324 20.3556 49.0754 15.85 46.7222 12.0225L45.8703 12.5462C48.1294 16.2208 49.4324 20.5458 49.4324 25.1749H50.4324ZM25.2162 50.3497C39.1405 50.3497 50.4324 39.0795 50.4324 25.1749H49.4324C49.4324 38.5256 38.5898 49.3497 25.2162 49.3497V50.3497ZM0 25.1749C0 39.0795 11.2919 50.3497 25.2162 50.3497V49.3497C11.8426 49.3497 1 38.5256 1 25.1749H0ZM2 25.1749C2 12.378 12.3933 2 25.2162 2V1C11.8426 1 1 11.8241 1 25.1749H2ZM25.2162 48.3497C12.3933 48.3497 2 37.9717 2 25.1749H1C1 38.5256 11.8426 49.3497 25.2162 49.3497V48.3497ZM48.4324 25.1749C48.4324 37.9717 38.0391 48.3497 25.2162 48.3497V49.3497C38.5898 49.3497 49.4324 38.5256 49.4324 25.1749H48.4324ZM45.0308 13.0902C47.1883 16.6074 48.4324 20.7445 48.4324 25.1749H49.4324C49.4324 20.5546 48.1344 16.2374 45.8833 12.5673L45.0308 13.0902ZM42.2446 9.41873L45.0586 13.1308L45.8555 12.5267L43.0416 8.81463L42.2446 9.41873ZM25.2162 2C31.9621 2 38.0338 4.87016 42.2761 9.4562L43.0102 8.77715C38.5864 3.99481 32.2519 1 25.2162 1V2ZM25.2162 4.67901C13.8792 4.67901 4.68701 13.853 4.68701 25.1749H5.68701C5.68701 14.4069 14.4298 5.67901 25.2162 5.67901V4.67901ZM40.4333 11.4172C36.6785 7.28035 31.2497 4.67901 25.2162 4.67901V5.67901C30.9562 5.67901 36.1198 8.15263 39.6928 12.0892L40.4333 11.4172ZM40.5094 11.512C40.486 11.4788 40.4605 11.4472 40.4333 11.4172L39.6928 12.0892L39.6928 12.0892L40.5094 11.512ZM43.2528 15.3924L40.5094 11.512L39.6928 12.0892L42.4363 15.9697L43.2528 15.3924ZM43.3172 15.4964C43.2979 15.4604 43.2764 15.4257 43.2528 15.3924L42.4363 15.9697V15.9697L43.3172 15.4964ZM45.7454 25.1749C45.7454 21.6756 44.8667 18.3801 43.3172 15.4964L42.4363 15.9697C43.9096 18.7116 44.7454 21.845 44.7454 25.1749H45.7454ZM25.2162 45.6707C36.5533 45.6707 45.7454 36.4967 45.7454 25.1749H44.7454C44.7454 35.9428 36.0026 44.6707 25.2162 44.6707V45.6707ZM4.68701 25.1749C4.68701 36.4967 13.8792 45.6707 25.2162 45.6707V44.6707C14.4298 44.6707 5.68701 35.9428 5.68701 25.1749H4.68701ZM6.68701 25.1749C6.68701 14.9608 14.9805 6.67901 25.2162 6.67901V5.67901C14.4298 5.67901 5.68701 14.4069 5.68701 25.1749H6.68701ZM25.2162 43.6707C14.9805 43.6707 6.68701 35.3889 6.68701 25.1749H5.68701C5.68701 35.9428 14.4298 44.6707 25.2162 44.6707V43.6707ZM43.7454 25.1749C43.7454 35.3889 35.4519 43.6707 25.2162 43.6707V44.6707C36.0026 44.6707 44.7454 35.9428 44.7454 25.1749H43.7454ZM41.5694 16.4691C42.9578 19.063 43.7454 22.0249 43.7454 25.1749H44.7454C44.7454 21.8561 43.9152 18.7326 42.451 15.9972L41.5694 16.4691ZM38.894 12.6916L41.6019 16.5218L42.4185 15.9445L39.7105 12.1143L38.894 12.6916ZM25.2162 6.67901C30.6522 6.67901 35.542 9.01583 38.9326 12.7395L39.672 12.0663C36.0997 8.14302 30.9451 5.67901 25.2162 5.67901V6.67901Z" fill="#62E0D9"/>
<path fill-rule="evenodd" clip-rule="evenodd" d="M42.5134 31.2186C42.5134 33.1267 40.9636 34.6721 39.0539 34.6721C37.1443 34.6721 35.5945 33.1267 35.5945 31.2186C35.5945 29.3105 37.1443 27.765 39.0539 27.765C40.9636 27.765 42.5134 29.3105 42.5134 31.2186Z" stroke="#62E0D9" stroke-linejoin="round"/>
<path fill-rule="evenodd" clip-rule="evenodd" d="M39.0539 34.6721C37.594 34.6721 36.2751 35.1211 35.3316 35.5597C34.4286 35.9819 33.8647 36.8988 33.8647 37.8934V43.306C33.8647 44.2592 34.6397 45.0328 35.5945 45.0328V51.9399C35.5945 52.8931 36.3685 53.6667 37.3242 53.6667H40.7837C41.7393 53.6667 42.5134 52.8931 42.5134 51.9399V45.0328C43.4682 45.0328 44.2431 44.2592 44.2431 43.306V37.8934C44.2431 36.8988 43.6792 35.9819 42.7763 35.5597C41.8327 35.1211 40.5138 34.6721 39.0539 34.6721Z" stroke="#62E0D9" stroke-linecap="round" stroke-linejoin="round"/>
<path fill-rule="evenodd" clip-rule="evenodd" d="M52.8918 31.2186C52.8918 33.1267 51.3428 34.6721 49.4324 34.6721C47.5219 34.6721 45.9729 33.1267 45.9729 31.2186C45.9729 29.3105 47.5219 27.765 49.4324 27.765C51.3428 27.765 52.8918 29.3105 52.8918 31.2186Z" stroke="#62E0D9" stroke-linejoin="round"/>
<path fill-rule="evenodd" clip-rule="evenodd" d="M49.4324 34.6721C47.9725 34.6721 46.6535 35.1211 45.71 35.5597C44.8071 35.9819 44.2432 36.8988 44.2432 37.8934V43.306C44.2432 44.2592 45.0172 45.0328 45.9729 45.0328V51.9399C45.9729 52.8931 46.7478 53.6667 47.7026 53.6667H51.1621C52.1178 53.6667 52.8918 52.8931 52.8918 51.9399V45.0328C53.8475 45.0328 54.6215 44.2592 54.6215 43.306V37.8934C54.6215 36.8988 54.0577 35.9819 53.1547 35.5597C52.2112 35.1211 50.8922 34.6721 49.4324 34.6721Z" stroke="#62E0D9" stroke-linecap="round" stroke-linejoin="round"/>
<path fill-rule="evenodd" clip-rule="evenodd" d="M63.2702 31.2186C63.2702 33.1267 61.7213 34.6721 59.8108 34.6721C57.9003 34.6721 56.3513 33.1267 56.3513 31.2186C56.3513 29.3105 57.9003 27.765 59.8108 27.765C61.7213 27.765 63.2702 29.3105 63.2702 31.2186Z" stroke="#62E0D9" stroke-linejoin="round"/>
<path fill-rule="evenodd" clip-rule="evenodd" d="M59.8108 34.6721C58.3509 34.6721 57.032 35.1211 56.0884 35.5597C55.1855 35.9819 54.6216 36.8988 54.6216 37.8934V43.306C54.6216 44.2592 55.3956 45.0328 56.3513 45.0328V51.9399C56.3513 52.8931 57.1262 53.6667 58.081 53.6667H61.5405C62.4962 53.6667 63.2702 52.8931 63.2702 51.9399V45.0328C64.2259 45.0328 65 44.2592 65 43.306V37.8934C65 36.8988 64.4361 35.9819 63.5331 35.5597C62.5896 35.1211 61.2707 34.6721 59.8108 34.6721Z" stroke="#62E0D9" stroke-linecap="round" stroke-linejoin="round"/>
</svg>
